<mxfile host="app.diagrams.net" modified="2023-04-07T06:14:37.453Z" agent="Mozilla/5.0 (Windows NT 10.0; Win64; x64) AppleWebKit/537.36 (KHTML, like Gecko) Chrome/111.0.0.0 Safari/537.36" etag="YqyJwK-lJ4q_sVJyoMn-" version="21.1.4" type="github">
  <diagram name="Page-1" id="_z1tkh_PV9rJr3MugoHL">
    <mxGraphModel dx="1564" dy="862" grid="1" gridSize="10" guides="1" tooltips="1" connect="1" arrows="1" fold="1" page="1" pageScale="1" pageWidth="900" pageHeight="1600" math="0" shadow="0">
      <root>
        <mxCell id="0" />
        <mxCell id="1" parent="0" />
        <mxCell id="ZIymd6RmfC0o9f14iLVZ-6" value="MySql Server&lt;br&gt;" style="image;html=1;image=img/lib/clip_art/computers/Database_128x128.png" vertex="1" parent="1">
          <mxGeometry x="257.3" y="577.16" width="60" height="60" as="geometry" />
        </mxCell>
        <mxCell id="ZIymd6RmfC0o9f14iLVZ-26" style="edgeStyle=orthogonalEdgeStyle;rounded=0;orthogonalLoop=1;jettySize=auto;html=1;entryX=0.468;entryY=-0.041;entryDx=0;entryDy=0;entryPerimeter=0;exitX=0;exitY=0.5;exitDx=0;exitDy=0;exitPerimeter=0;" edge="1" parent="1" source="ZIymd6RmfC0o9f14iLVZ-9" target="ZIymd6RmfC0o9f14iLVZ-17">
          <mxGeometry relative="1" as="geometry">
            <mxPoint x="574.3300000000002" y="67.16" as="sourcePoint" />
            <mxPoint x="410.07519999999994" y="272.4009800000003" as="targetPoint" />
          </mxGeometry>
        </mxCell>
        <mxCell id="ZIymd6RmfC0o9f14iLVZ-66" value="PULL" style="edgeLabel;html=1;align=center;verticalAlign=middle;resizable=0;points=[];" vertex="1" connectable="0" parent="ZIymd6RmfC0o9f14iLVZ-26">
          <mxGeometry x="-0.1187" y="1" relative="1" as="geometry">
            <mxPoint as="offset" />
          </mxGeometry>
        </mxCell>
        <mxCell id="ZIymd6RmfC0o9f14iLVZ-57" style="edgeStyle=orthogonalEdgeStyle;rounded=0;orthogonalLoop=1;jettySize=auto;html=1;entryX=0.5;entryY=1;entryDx=0;entryDy=0;entryPerimeter=0;exitX=0.968;exitY=0.508;exitDx=0;exitDy=0;exitPerimeter=0;" edge="1" parent="1" source="ZIymd6RmfC0o9f14iLVZ-17" target="ZIymd6RmfC0o9f14iLVZ-9">
          <mxGeometry relative="1" as="geometry" />
        </mxCell>
        <mxCell id="ZIymd6RmfC0o9f14iLVZ-59" value="Push" style="edgeLabel;html=1;align=center;verticalAlign=middle;resizable=0;points=[];" vertex="1" connectable="0" parent="ZIymd6RmfC0o9f14iLVZ-57">
          <mxGeometry x="0.5374" y="-4" relative="1" as="geometry">
            <mxPoint x="-4" y="39" as="offset" />
          </mxGeometry>
        </mxCell>
        <mxCell id="ZIymd6RmfC0o9f14iLVZ-17" value="" style="image;sketch=0;aspect=fixed;html=1;points=[];align=center;fontSize=12;image=img/lib/mscae/WebAppWordPress.svg;imageBorder=none;" vertex="1" parent="1">
          <mxGeometry x="263.4" y="229.77" width="106.6" height="108.78" as="geometry" />
        </mxCell>
        <mxCell id="ZIymd6RmfC0o9f14iLVZ-61" style="edgeStyle=orthogonalEdgeStyle;rounded=0;orthogonalLoop=1;jettySize=auto;html=1;entryX=0.012;entryY=0.169;entryDx=0;entryDy=0;entryPerimeter=0;exitX=1;exitY=0.5;exitDx=0;exitDy=0;" edge="1" parent="1" source="ZIymd6RmfC0o9f14iLVZ-18" target="ZIymd6RmfC0o9f14iLVZ-17">
          <mxGeometry relative="1" as="geometry" />
        </mxCell>
        <mxCell id="ZIymd6RmfC0o9f14iLVZ-18" value="" style="shape=image;html=1;verticalAlign=top;verticalLabelPosition=bottom;labelBackgroundColor=#ffffff;imageAspect=0;aspect=fixed;image=https://cdn2.iconfinder.com/data/icons/boxicons-solid-vol-2/24/bxs-file-css-128.png" vertex="1" parent="1">
          <mxGeometry x="120" y="168.38" width="70" height="70" as="geometry" />
        </mxCell>
        <mxCell id="ZIymd6RmfC0o9f14iLVZ-60" style="edgeStyle=orthogonalEdgeStyle;rounded=0;orthogonalLoop=1;jettySize=auto;html=1;exitX=1.106;exitY=0.544;exitDx=0;exitDy=0;exitPerimeter=0;entryX=0.019;entryY=0.487;entryDx=0;entryDy=0;entryPerimeter=0;" edge="1" parent="1" source="ZIymd6RmfC0o9f14iLVZ-19" target="ZIymd6RmfC0o9f14iLVZ-17">
          <mxGeometry relative="1" as="geometry" />
        </mxCell>
        <mxCell id="ZIymd6RmfC0o9f14iLVZ-19" value="" style="dashed=0;outlineConnect=0;html=1;align=center;labelPosition=center;verticalLabelPosition=bottom;verticalAlign=top;shape=mxgraph.weblogos.html5" vertex="1" parent="1">
          <mxGeometry x="128.8" y="247.16" width="51.2" height="74" as="geometry" />
        </mxCell>
        <mxCell id="ZIymd6RmfC0o9f14iLVZ-22" value="" style="shape=image;html=1;verticalAlign=top;verticalLabelPosition=bottom;labelBackgroundColor=#ffffff;imageAspect=0;aspect=fixed;image=https://cdn4.iconfinder.com/data/icons/Mobile-Icons/128/03_photos.png" vertex="1" parent="1">
          <mxGeometry x="104.8" y="447.16" width="75.2" height="75.2" as="geometry" />
        </mxCell>
        <mxCell id="ZIymd6RmfC0o9f14iLVZ-63" style="edgeStyle=orthogonalEdgeStyle;rounded=0;orthogonalLoop=1;jettySize=auto;html=1;entryX=0.25;entryY=0.711;entryDx=0;entryDy=0;entryPerimeter=0;exitX=1;exitY=0.5;exitDx=0;exitDy=0;" edge="1" parent="1" source="ZIymd6RmfC0o9f14iLVZ-27" target="ZIymd6RmfC0o9f14iLVZ-17">
          <mxGeometry relative="1" as="geometry">
            <Array as="points">
              <mxPoint x="210" y="392" />
              <mxPoint x="210" y="307" />
            </Array>
          </mxGeometry>
        </mxCell>
        <mxCell id="ZIymd6RmfC0o9f14iLVZ-27" value="" style="shape=image;html=1;verticalAlign=top;verticalLabelPosition=bottom;labelBackgroundColor=#ffffff;imageAspect=0;aspect=fixed;image=https://cdn4.iconfinder.com/data/icons/file-extension-names-vol-5-1/512/23-128.png" vertex="1" parent="1">
          <mxGeometry x="110.00000000000001" y="357.16" width="70" height="70" as="geometry" />
        </mxCell>
        <mxCell id="ZIymd6RmfC0o9f14iLVZ-62" style="edgeStyle=orthogonalEdgeStyle;rounded=0;orthogonalLoop=1;jettySize=auto;html=1;entryX=0.173;entryY=0.011;entryDx=0;entryDy=0;entryPerimeter=0;exitX=1;exitY=0.5;exitDx=0;exitDy=0;" edge="1" parent="1" source="ZIymd6RmfC0o9f14iLVZ-31" target="ZIymd6RmfC0o9f14iLVZ-17">
          <mxGeometry relative="1" as="geometry" />
        </mxCell>
        <mxCell id="ZIymd6RmfC0o9f14iLVZ-31" value="" style="shape=image;html=1;verticalAlign=top;verticalLabelPosition=bottom;labelBackgroundColor=#ffffff;imageAspect=0;aspect=fixed;image=https://cdn1.iconfinder.com/data/icons/unicons-line-vol-4/24/java-script-128.png" vertex="1" parent="1">
          <mxGeometry x="124.8" y="87.16" width="78" height="78" as="geometry" />
        </mxCell>
        <mxCell id="ZIymd6RmfC0o9f14iLVZ-34" value="Online Database&lt;br&gt;connected to WordPress&lt;br&gt;" style="edgeStyle=orthogonalEdgeStyle;rounded=0;orthogonalLoop=1;jettySize=auto;html=1;entryX=0;entryY=0.75;entryDx=0;entryDy=0;exitX=0.645;exitY=0.021;exitDx=0;exitDy=0;exitPerimeter=0;" edge="1" parent="1" source="ZIymd6RmfC0o9f14iLVZ-33" target="ZIymd6RmfC0o9f14iLVZ-6">
          <mxGeometry x="-0.4342" y="-10" relative="1" as="geometry">
            <mxPoint x="160" y="740" as="sourcePoint" />
            <mxPoint x="210" y="617.16" as="targetPoint" />
            <Array as="points">
              <mxPoint x="170" y="756" />
              <mxPoint x="170" y="622" />
            </Array>
            <mxPoint as="offset" />
          </mxGeometry>
        </mxCell>
        <mxCell id="ZIymd6RmfC0o9f14iLVZ-33" value="" style="sketch=0;outlineConnect=0;fontColor=#232F3E;gradientColor=none;fillColor=#2E27AD;strokeColor=none;dashed=0;verticalLabelPosition=bottom;verticalAlign=top;align=center;html=1;fontSize=12;fontStyle=0;aspect=fixed;pointerEvents=1;shape=mxgraph.aws4.rds_mysql_instance;" vertex="1" parent="1">
          <mxGeometry x="129.8" y="754.16" width="68" height="68" as="geometry" />
        </mxCell>
        <mxCell id="ZIymd6RmfC0o9f14iLVZ-43" style="edgeStyle=orthogonalEdgeStyle;rounded=0;orthogonalLoop=1;jettySize=auto;html=1;entryX=-0.122;entryY=1.106;entryDx=0;entryDy=0;entryPerimeter=0;" edge="1" parent="1" source="ZIymd6RmfC0o9f14iLVZ-36" target="ZIymd6RmfC0o9f14iLVZ-54">
          <mxGeometry relative="1" as="geometry">
            <mxPoint x="290" y="627.16" as="targetPoint" />
            <Array as="points">
              <mxPoint x="364" y="697.16" />
              <mxPoint x="290" y="697.16" />
              <mxPoint x="290" y="666.16" />
            </Array>
          </mxGeometry>
        </mxCell>
        <mxCell id="ZIymd6RmfC0o9f14iLVZ-105" value="MySQL Dump &lt;br&gt;For Backup" style="edgeLabel;html=1;align=center;verticalAlign=middle;resizable=0;points=[];" vertex="1" connectable="0" parent="ZIymd6RmfC0o9f14iLVZ-43">
          <mxGeometry x="-0.4947" y="-8" relative="1" as="geometry">
            <mxPoint x="1" as="offset" />
          </mxGeometry>
        </mxCell>
        <mxCell id="ZIymd6RmfC0o9f14iLVZ-36" value="" style="sketch=0;outlineConnect=0;fontColor=#232F3E;gradientColor=none;fillColor=#2E27AD;strokeColor=none;dashed=0;verticalLabelPosition=bottom;verticalAlign=top;align=center;html=1;fontSize=12;fontStyle=0;aspect=fixed;pointerEvents=1;shape=mxgraph.aws4.rds_mysql_instance;" vertex="1" parent="1">
          <mxGeometry x="450" y="759.16" width="58" height="58" as="geometry" />
        </mxCell>
        <mxCell id="ZIymd6RmfC0o9f14iLVZ-38" value="MySQL Dump &lt;br&gt;for Backup" style="edgeStyle=orthogonalEdgeStyle;rounded=0;orthogonalLoop=1;jettySize=auto;html=1;" edge="1" parent="1" source="ZIymd6RmfC0o9f14iLVZ-37">
          <mxGeometry x="-0.5317" relative="1" as="geometry">
            <mxPoint x="260" y="787.16" as="sourcePoint" />
            <mxPoint x="272" y="667.16" as="targetPoint" />
            <Array as="points">
              <mxPoint x="272" y="865.16" />
            </Array>
            <mxPoint y="1" as="offset" />
          </mxGeometry>
        </mxCell>
        <mxCell id="ZIymd6RmfC0o9f14iLVZ-42" value="&lt;font style=&quot;font-size: 14px;&quot;&gt;Om Premises &lt;br&gt;DataCenter&lt;/font&gt;" style="verticalLabelPosition=bottom;sketch=0;aspect=fixed;html=1;verticalAlign=top;strokeColor=none;align=center;outlineConnect=0;shape=mxgraph.citrix.datacenter;" vertex="1" parent="1">
          <mxGeometry x="647.66" y="377.16" width="119.22" height="126.24" as="geometry" />
        </mxCell>
        <mxCell id="ZIymd6RmfC0o9f14iLVZ-37" value="" style="sketch=0;outlineConnect=0;fontColor=#232F3E;gradientColor=none;fillColor=#2E27AD;strokeColor=none;dashed=0;verticalLabelPosition=bottom;verticalAlign=top;align=center;html=1;fontSize=12;fontStyle=0;aspect=fixed;pointerEvents=1;shape=mxgraph.aws4.rds_mysql_instance;" vertex="1" parent="1">
          <mxGeometry x="453" y="837.16" width="55" height="55" as="geometry" />
        </mxCell>
        <mxCell id="ZIymd6RmfC0o9f14iLVZ-53" value="" style="shape=image;html=1;verticalAlign=top;verticalLabelPosition=bottom;labelBackgroundColor=#ffffff;imageAspect=0;aspect=fixed;image=https://cdn1.iconfinder.com/data/icons/Vista-Inspirate_1.0/128x128/apps/debian.png" vertex="1" parent="1">
          <mxGeometry x="317.3" y="316.56" width="50.3" height="50.3" as="geometry" />
        </mxCell>
        <mxCell id="ZIymd6RmfC0o9f14iLVZ-54" value="" style="shape=image;html=1;verticalAlign=top;verticalLabelPosition=bottom;labelBackgroundColor=#ffffff;imageAspect=0;aspect=fixed;image=https://cdn1.iconfinder.com/data/icons/Vista-Inspirate_1.0/128x128/apps/debian.png" vertex="1" parent="1">
          <mxGeometry x="300" y="567.16" width="90" height="90" as="geometry" />
        </mxCell>
        <mxCell id="ZIymd6RmfC0o9f14iLVZ-9" value="Git (Versioning&lt;br&gt;for Source&amp;nbsp;&lt;br&gt;Code)&lt;br&gt;" style="verticalLabelPosition=bottom;html=1;verticalAlign=top;align=center;strokeColor=none;fillColor=#00BEF2;shape=mxgraph.azure.git_repository;" vertex="1" parent="1">
          <mxGeometry x="420" y="127.16" width="96.7" height="70" as="geometry" />
        </mxCell>
        <mxCell id="ZIymd6RmfC0o9f14iLVZ-68" value="" style="endArrow=classic;startArrow=classic;html=1;rounded=0;exitX=0.635;exitY=0.003;exitDx=0;exitDy=0;exitPerimeter=0;entryX=0.75;entryY=1;entryDx=0;entryDy=0;" edge="1" parent="1" source="ZIymd6RmfC0o9f14iLVZ-54" target="ZIymd6RmfC0o9f14iLVZ-53">
          <mxGeometry width="50" height="50" relative="1" as="geometry">
            <mxPoint x="320" y="497.16" as="sourcePoint" />
            <mxPoint x="370" y="447.16" as="targetPoint" />
          </mxGeometry>
        </mxCell>
        <mxCell id="ZIymd6RmfC0o9f14iLVZ-129" style="edgeStyle=none;rounded=0;orthogonalLoop=1;jettySize=auto;html=1;entryX=0.5;entryY=0;entryDx=0;entryDy=0;entryPerimeter=0;exitX=0.67;exitY=1;exitDx=0;exitDy=0;exitPerimeter=0;" edge="1" parent="1" source="ZIymd6RmfC0o9f14iLVZ-207" target="ZIymd6RmfC0o9f14iLVZ-123">
          <mxGeometry relative="1" as="geometry">
            <mxPoint x="1340" y="80" as="sourcePoint" />
            <Array as="points" />
          </mxGeometry>
        </mxCell>
        <mxCell id="ZIymd6RmfC0o9f14iLVZ-222" value="" style="edgeStyle=none;rounded=0;orthogonalLoop=1;jettySize=auto;html=1;exitX=0.452;exitY=1.07;exitDx=0;exitDy=0;exitPerimeter=0;" edge="1" parent="1" source="ZIymd6RmfC0o9f14iLVZ-71" target="ZIymd6RmfC0o9f14iLVZ-74">
          <mxGeometry relative="1" as="geometry">
            <mxPoint x="711" y="70" as="sourcePoint" />
          </mxGeometry>
        </mxCell>
        <mxCell id="ZIymd6RmfC0o9f14iLVZ-71" value="" style="points=[[0.35,0,0],[0.98,0.51,0],[1,0.71,0],[0.67,1,0],[0,0.795,0],[0,0.65,0]];verticalLabelPosition=bottom;sketch=0;html=1;verticalAlign=top;aspect=fixed;align=center;pointerEvents=1;shape=mxgraph.cisco19.user;fillColor=#005073;strokeColor=none;" vertex="1" parent="1">
          <mxGeometry x="686.9499999999999" y="20" width="48.7" height="48.7" as="geometry" />
        </mxCell>
        <mxCell id="ZIymd6RmfC0o9f14iLVZ-76" value="" style="endArrow=classic;startArrow=classic;html=1;rounded=0;strokeWidth=2;strokeColor=#2E5FFF;" edge="1" parent="1" source="ZIymd6RmfC0o9f14iLVZ-117" target="ZIymd6RmfC0o9f14iLVZ-74">
          <mxGeometry width="50" height="50" relative="1" as="geometry">
            <mxPoint x="711" y="377.16" as="sourcePoint" />
            <mxPoint x="704.44" y="238.38" as="targetPoint" />
          </mxGeometry>
        </mxCell>
        <mxCell id="ZIymd6RmfC0o9f14iLVZ-114" value="&lt;font style=&quot;font-size: 13px;&quot;&gt;Firewall&lt;br&gt;Security&lt;/font&gt;" style="edgeLabel;html=1;align=center;verticalAlign=middle;resizable=0;points=[];" vertex="1" connectable="0" parent="ZIymd6RmfC0o9f14iLVZ-76">
          <mxGeometry x="0.3679" y="-1" relative="1" as="geometry">
            <mxPoint x="53" y="95" as="offset" />
          </mxGeometry>
        </mxCell>
        <mxCell id="ZIymd6RmfC0o9f14iLVZ-74" value="" style="image;aspect=fixed;perimeter=ellipsePerimeter;html=1;align=center;shadow=0;dashed=0;spacingTop=3;image=img/lib/active_directory/internet_cloud.svg;" vertex="1" parent="1">
          <mxGeometry x="647.6600000000001" y="137.16" width="127.28" height="80.19" as="geometry" />
        </mxCell>
        <mxCell id="ZIymd6RmfC0o9f14iLVZ-81" value="" style="shape=image;html=1;verticalAlign=top;verticalLabelPosition=bottom;labelBackgroundColor=#ffffff;imageAspect=0;aspect=fixed;image=https://cdn1.iconfinder.com/data/icons/Vista-Inspirate_1.0/128x128/apps/debian.png" vertex="1" parent="1">
          <mxGeometry x="610.78" y="467.16" width="40" height="40" as="geometry" />
        </mxCell>
        <mxCell id="ZIymd6RmfC0o9f14iLVZ-83" value="" style="endArrow=classic;startArrow=classic;html=1;rounded=0;entryX=1;entryY=0.25;entryDx=0;entryDy=0;exitX=0;exitY=0.75;exitDx=0;exitDy=0;" edge="1" parent="1" source="ZIymd6RmfC0o9f14iLVZ-81" target="ZIymd6RmfC0o9f14iLVZ-54">
          <mxGeometry width="50" height="50" relative="1" as="geometry">
            <mxPoint x="609.6999999999998" y="428.05901831225236" as="sourcePoint" />
            <mxPoint x="370" y="578.16" as="targetPoint" />
          </mxGeometry>
        </mxCell>
        <mxCell id="ZIymd6RmfC0o9f14iLVZ-8" value="Apache Server" style="image;aspect=fixed;perimeter=ellipsePerimeter;html=1;align=center;shadow=0;dashed=0;spacingTop=3;image=img/lib/active_directory/database_server.svg;" vertex="1" parent="1">
          <mxGeometry x="620.28" y="397.16" width="41" height="50" as="geometry" />
        </mxCell>
        <mxCell id="ZIymd6RmfC0o9f14iLVZ-88" value="" style="endArrow=classic;startArrow=classic;html=1;rounded=0;entryX=1;entryY=0.5;entryDx=0;entryDy=0;entryPerimeter=0;" edge="1" parent="1" source="ZIymd6RmfC0o9f14iLVZ-42">
          <mxGeometry width="50" height="50" relative="1" as="geometry">
            <mxPoint x="650.78" y="494.3400000000001" as="sourcePoint" />
            <mxPoint x="670.78" y="503.4900000000002" as="targetPoint" />
          </mxGeometry>
        </mxCell>
        <mxCell id="ZIymd6RmfC0o9f14iLVZ-93" value="AWS Cloud" style="points=[[0,0],[0.25,0],[0.5,0],[0.75,0],[1,0],[1,0.25],[1,0.5],[1,0.75],[1,1],[0.75,1],[0.5,1],[0.25,1],[0,1],[0,0.75],[0,0.5],[0,0.25]];outlineConnect=0;gradientColor=none;html=1;whiteSpace=wrap;fontSize=12;fontStyle=0;container=1;pointerEvents=0;collapsible=0;recursiveResize=0;shape=mxgraph.aws4.group;grIcon=mxgraph.aws4.group_aws_cloud_alt;strokeColor=#232F3E;fillColor=none;verticalAlign=top;align=left;spacingLeft=30;fontColor=#232F3E;dashed=0;" vertex="1" parent="1">
          <mxGeometry x="950" y="122" width="830" height="1198" as="geometry" />
        </mxCell>
        <mxCell id="ZIymd6RmfC0o9f14iLVZ-96" value="&lt;font style=&quot;font-size: 14px;&quot; color=&quot;#00994d&quot;&gt;&lt;b&gt;VPC&lt;/b&gt;&lt;/font&gt;" style="points=[[0,0],[0.25,0],[0.5,0],[0.75,0],[1,0],[1,0.25],[1,0.5],[1,0.75],[1,1],[0.75,1],[0.5,1],[0.25,1],[0,1],[0,0.75],[0,0.5],[0,0.25]];outlineConnect=0;gradientColor=none;html=1;whiteSpace=wrap;fontSize=12;fontStyle=0;container=1;pointerEvents=0;collapsible=0;recursiveResize=0;shape=mxgraph.aws4.group;grIcon=mxgraph.aws4.group_vpc;strokeColor=#248814;fillColor=none;verticalAlign=top;align=left;spacingLeft=30;fontColor=#AAB7B8;dashed=0;" vertex="1" parent="ZIymd6RmfC0o9f14iLVZ-93">
          <mxGeometry x="20" y="283" width="770" height="827" as="geometry" />
        </mxCell>
        <mxCell id="ZIymd6RmfC0o9f14iLVZ-137" value="Availability Zone 1" style="fillColor=none;strokeColor=#147EBA;dashed=1;verticalAlign=top;fontStyle=0;fontColor=#147EBA;whiteSpace=wrap;html=1;" vertex="1" parent="ZIymd6RmfC0o9f14iLVZ-96">
          <mxGeometry x="140" y="-40" width="200" height="910" as="geometry" />
        </mxCell>
        <mxCell id="ZIymd6RmfC0o9f14iLVZ-161" value="DB Subnet" style="points=[[0,0],[0.25,0],[0.5,0],[0.75,0],[1,0],[1,0.25],[1,0.5],[1,0.75],[1,1],[0.75,1],[0.5,1],[0.25,1],[0,1],[0,0.75],[0,0.5],[0,0.25]];outlineConnect=0;gradientColor=none;html=1;whiteSpace=wrap;fontSize=12;fontStyle=0;container=1;pointerEvents=0;collapsible=0;recursiveResize=0;shape=mxgraph.aws4.group;grIcon=mxgraph.aws4.group_security_group;grStroke=0;strokeColor=#147EBA;fillColor=#E6F2F8;verticalAlign=top;align=left;spacingLeft=30;fontColor=#147EBA;dashed=0;" vertex="1" parent="ZIymd6RmfC0o9f14iLVZ-96">
          <mxGeometry x="150" y="600" width="170" height="210" as="geometry" />
        </mxCell>
        <mxCell id="ZIymd6RmfC0o9f14iLVZ-164" value="&lt;font style=&quot;font-size: 10px;&quot;&gt;&lt;b&gt;Amazon RDS&lt;br&gt;&amp;nbsp;Database(Primary)&lt;/b&gt;&lt;/font&gt;" style="sketch=0;points=[[0,0,0],[0.25,0,0],[0.5,0,0],[0.75,0,0],[1,0,0],[0,1,0],[0.25,1,0],[0.5,1,0],[0.75,1,0],[1,1,0],[0,0.25,0],[0,0.5,0],[0,0.75,0],[1,0.25,0],[1,0.5,0],[1,0.75,0]];outlineConnect=0;fontColor=#232F3E;gradientColor=#4D72F3;gradientDirection=north;fillColor=#3334B9;strokeColor=#ffffff;dashed=0;verticalLabelPosition=bottom;verticalAlign=top;align=center;html=1;fontSize=12;fontStyle=0;aspect=fixed;shape=mxgraph.aws4.resourceIcon;resIcon=mxgraph.aws4.rds;" vertex="1" parent="ZIymd6RmfC0o9f14iLVZ-161">
          <mxGeometry x="42" y="70" width="76" height="76" as="geometry" />
        </mxCell>
        <mxCell id="ZIymd6RmfC0o9f14iLVZ-167" value="&lt;font style=&quot;font-size: 9px;&quot;&gt;&lt;b&gt;Amazon ElastiCache Service&lt;br&gt;Caching Service&lt;/b&gt;&lt;/font&gt;" style="sketch=0;points=[[0,0,0],[0.25,0,0],[0.5,0,0],[0.75,0,0],[1,0,0],[0,1,0],[0.25,1,0],[0.5,1,0],[0.75,1,0],[1,1,0],[0,0.25,0],[0,0.5,0],[0,0.75,0],[1,0.25,0],[1,0.5,0],[1,0.75,0]];outlineConnect=0;fontColor=#232F3E;gradientColor=#4D72F3;gradientDirection=north;fillColor=#3334B9;strokeColor=#ffffff;dashed=0;verticalLabelPosition=bottom;verticalAlign=top;align=center;html=1;fontSize=12;fontStyle=0;aspect=fixed;shape=mxgraph.aws4.resourceIcon;resIcon=mxgraph.aws4.elasticache;" vertex="1" parent="ZIymd6RmfC0o9f14iLVZ-96">
          <mxGeometry x="40" y="678" width="60" height="60" as="geometry" />
        </mxCell>
        <mxCell id="ZIymd6RmfC0o9f14iLVZ-162" value="DB Subnet" style="points=[[0,0],[0.25,0],[0.5,0],[0.75,0],[1,0],[1,0.25],[1,0.5],[1,0.75],[1,1],[0.75,1],[0.5,1],[0.25,1],[0,1],[0,0.75],[0,0.5],[0,0.25]];outlineConnect=0;gradientColor=none;html=1;whiteSpace=wrap;fontSize=12;fontStyle=0;container=1;pointerEvents=0;collapsible=0;recursiveResize=0;shape=mxgraph.aws4.group;grIcon=mxgraph.aws4.group_security_group;grStroke=0;strokeColor=#147EBA;fillColor=#E6F2F8;verticalAlign=top;align=left;spacingLeft=30;fontColor=#147EBA;dashed=0;" vertex="1" parent="ZIymd6RmfC0o9f14iLVZ-96">
          <mxGeometry x="570" y="610" width="170" height="200" as="geometry" />
        </mxCell>
        <mxCell id="ZIymd6RmfC0o9f14iLVZ-172" value="" style="endArrow=classic;html=1;rounded=0;entryX=1;entryY=0.5;entryDx=0;entryDy=0;entryPerimeter=0;exitX=0;exitY=0.5;exitDx=0;exitDy=0;exitPerimeter=0;" edge="1" parent="ZIymd6RmfC0o9f14iLVZ-96" source="ZIymd6RmfC0o9f14iLVZ-164" target="ZIymd6RmfC0o9f14iLVZ-167">
          <mxGeometry width="50" height="50" relative="1" as="geometry">
            <mxPoint x="200" y="688" as="sourcePoint" />
            <mxPoint x="350" y="648" as="targetPoint" />
            <Array as="points" />
          </mxGeometry>
        </mxCell>
        <mxCell id="ZIymd6RmfC0o9f14iLVZ-143" value="&lt;font color=&quot;#ff9933&quot;&gt;&lt;b&gt;Auto Scaling Group&lt;br&gt;&amp;nbsp;Web Tier&lt;/b&gt;&lt;/font&gt;" style="sketch=0;outlineConnect=0;fontColor=#232F3E;gradientColor=none;fillColor=#D45B07;strokeColor=none;dashed=0;verticalLabelPosition=bottom;verticalAlign=top;align=center;html=1;fontSize=12;fontStyle=0;aspect=fixed;pointerEvents=1;shape=mxgraph.aws4.auto_scaling2;" vertex="1" parent="ZIymd6RmfC0o9f14iLVZ-96">
          <mxGeometry x="410" y="246" width="48" height="48" as="geometry" />
        </mxCell>
        <mxCell id="ZIymd6RmfC0o9f14iLVZ-145" value="Web Subnet" style="points=[[0,0],[0.25,0],[0.5,0],[0.75,0],[1,0],[1,0.25],[1,0.5],[1,0.75],[1,1],[0.75,1],[0.5,1],[0.25,1],[0,1],[0,0.75],[0,0.5],[0,0.25]];outlineConnect=0;gradientColor=none;html=1;whiteSpace=wrap;fontSize=12;fontStyle=0;container=1;pointerEvents=0;collapsible=0;recursiveResize=0;shape=mxgraph.aws4.group;grIcon=mxgraph.aws4.group_security_group;grStroke=0;strokeColor=#147EBA;fillColor=#E6F2F8;verticalAlign=top;align=left;spacingLeft=30;fontColor=#147EBA;dashed=0;" vertex="1" parent="ZIymd6RmfC0o9f14iLVZ-96">
          <mxGeometry x="145" y="180" width="155" height="180" as="geometry" />
        </mxCell>
        <mxCell id="ZIymd6RmfC0o9f14iLVZ-138" value="Elastic Load Balancing" style="sketch=0;points=[[0,0,0],[0.25,0,0],[0.5,0,0],[0.75,0,0],[1,0,0],[0,1,0],[0.25,1,0],[0.5,1,0],[0.75,1,0],[1,1,0],[0,0.25,0],[0,0.5,0],[0,0.75,0],[1,0.25,0],[1,0.5,0],[1,0.75,0]];outlineConnect=0;fontColor=#232F3E;gradientColor=#945DF2;gradientDirection=north;fillColor=#5A30B5;strokeColor=#ffffff;dashed=0;verticalLabelPosition=bottom;verticalAlign=top;align=center;html=1;fontSize=12;fontStyle=0;aspect=fixed;shape=mxgraph.aws4.resourceIcon;resIcon=mxgraph.aws4.elastic_load_balancing;" vertex="1" parent="ZIymd6RmfC0o9f14iLVZ-96">
          <mxGeometry x="402" y="118" width="70" height="70" as="geometry" />
        </mxCell>
        <mxCell id="ZIymd6RmfC0o9f14iLVZ-139" style="edgeStyle=none;rounded=0;orthogonalLoop=1;jettySize=auto;html=1;exitX=0.5;exitY=1;exitDx=0;exitDy=0;exitPerimeter=0;" edge="1" parent="ZIymd6RmfC0o9f14iLVZ-96" source="ZIymd6RmfC0o9f14iLVZ-138" target="ZIymd6RmfC0o9f14iLVZ-138">
          <mxGeometry relative="1" as="geometry" />
        </mxCell>
        <mxCell id="ZIymd6RmfC0o9f14iLVZ-146" value="Web Subnet" style="points=[[0,0],[0.25,0],[0.5,0],[0.75,0],[1,0],[1,0.25],[1,0.5],[1,0.75],[1,1],[0.75,1],[0.5,1],[0.25,1],[0,1],[0,0.75],[0,0.5],[0,0.25]];outlineConnect=0;gradientColor=none;html=1;whiteSpace=wrap;fontSize=12;fontStyle=0;container=1;pointerEvents=0;collapsible=0;recursiveResize=0;shape=mxgraph.aws4.group;grIcon=mxgraph.aws4.group_security_group;grStroke=0;strokeColor=#147EBA;fillColor=#E6F2F8;verticalAlign=top;align=left;spacingLeft=30;fontColor=#147EBA;dashed=0;" vertex="1" parent="ZIymd6RmfC0o9f14iLVZ-96">
          <mxGeometry x="565" y="180" width="175" height="180" as="geometry" />
        </mxCell>
        <mxCell id="ZIymd6RmfC0o9f14iLVZ-152" value="" style="rounded=1;arcSize=10;dashed=1;strokeColor=#F59D56;fillColor=none;gradientColor=none;dashPattern=8 4;strokeWidth=2;" vertex="1" parent="ZIymd6RmfC0o9f14iLVZ-96">
          <mxGeometry x="157" y="230" width="560" height="121" as="geometry" />
        </mxCell>
        <mxCell id="ZIymd6RmfC0o9f14iLVZ-155" value="" style="endArrow=classic;html=1;rounded=0;exitX=0;exitY=0.5;exitDx=0;exitDy=0;exitPerimeter=0;entryX=0.5;entryY=0;entryDx=0;entryDy=0;entryPerimeter=0;" edge="1" parent="ZIymd6RmfC0o9f14iLVZ-96" source="ZIymd6RmfC0o9f14iLVZ-138" target="ZIymd6RmfC0o9f14iLVZ-149">
          <mxGeometry width="50" height="50" relative="1" as="geometry">
            <mxPoint x="295" y="236" as="sourcePoint" />
            <mxPoint x="345" y="186" as="targetPoint" />
            <Array as="points">
              <mxPoint x="220" y="153" />
            </Array>
          </mxGeometry>
        </mxCell>
        <mxCell id="ZIymd6RmfC0o9f14iLVZ-178" value="&lt;font color=&quot;#ff9933&quot;&gt;&lt;b&gt;Auto Scaling Group&lt;br&gt;&amp;nbsp;Web Tier&lt;/b&gt;&lt;/font&gt;" style="sketch=0;outlineConnect=0;fontColor=#232F3E;gradientColor=none;fillColor=#D45B07;strokeColor=none;dashed=0;verticalLabelPosition=bottom;verticalAlign=top;align=center;html=1;fontSize=12;fontStyle=0;aspect=fixed;pointerEvents=1;shape=mxgraph.aws4.auto_scaling2;" vertex="1" parent="ZIymd6RmfC0o9f14iLVZ-96">
          <mxGeometry x="410" y="476" width="48" height="48" as="geometry" />
        </mxCell>
        <mxCell id="ZIymd6RmfC0o9f14iLVZ-179" value="Web Subnet" style="points=[[0,0],[0.25,0],[0.5,0],[0.75,0],[1,0],[1,0.25],[1,0.5],[1,0.75],[1,1],[0.75,1],[0.5,1],[0.25,1],[0,1],[0,0.75],[0,0.5],[0,0.25]];outlineConnect=0;gradientColor=none;html=1;whiteSpace=wrap;fontSize=12;fontStyle=0;container=1;pointerEvents=0;collapsible=0;recursiveResize=0;shape=mxgraph.aws4.group;grIcon=mxgraph.aws4.group_security_group;grStroke=0;strokeColor=#147EBA;fillColor=#E6F2F8;verticalAlign=top;align=left;spacingLeft=30;fontColor=#147EBA;dashed=0;" vertex="1" parent="ZIymd6RmfC0o9f14iLVZ-96">
          <mxGeometry x="150" y="390" width="160" height="180" as="geometry" />
        </mxCell>
        <mxCell id="ZIymd6RmfC0o9f14iLVZ-180" value="EC2 Instances&lt;br&gt;Web Servers" style="sketch=0;points=[[0,0,0],[0.25,0,0],[0.5,0,0],[0.75,0,0],[1,0,0],[0,1,0],[0.25,1,0],[0.5,1,0],[0.75,1,0],[1,1,0],[0,0.25,0],[0,0.5,0],[0,0.75,0],[1,0.25,0],[1,0.5,0],[1,0.75,0]];outlineConnect=0;fontColor=#232F3E;gradientColor=#FF8000;gradientDirection=north;fillColor=none;strokeColor=#FF8000;dashed=0;verticalLabelPosition=bottom;verticalAlign=top;align=center;html=1;fontSize=12;fontStyle=0;aspect=fixed;shape=mxgraph.aws4.resourceIcon;resIcon=mxgraph.aws4.ec2;" vertex="1" parent="ZIymd6RmfC0o9f14iLVZ-179">
          <mxGeometry x="50" y="68" width="50" height="50" as="geometry" />
        </mxCell>
        <mxCell id="ZIymd6RmfC0o9f14iLVZ-181" value="Elastic Load Balancing" style="sketch=0;points=[[0,0,0],[0.25,0,0],[0.5,0,0],[0.75,0,0],[1,0,0],[0,1,0],[0.25,1,0],[0.5,1,0],[0.75,1,0],[1,1,0],[0,0.25,0],[0,0.5,0],[0,0.75,0],[1,0.25,0],[1,0.5,0],[1,0.75,0]];outlineConnect=0;fontColor=#232F3E;gradientColor=#945DF2;gradientDirection=north;fillColor=#5A30B5;strokeColor=#ffffff;dashed=0;verticalLabelPosition=bottom;verticalAlign=top;align=center;html=1;fontSize=12;fontStyle=0;aspect=fixed;shape=mxgraph.aws4.resourceIcon;resIcon=mxgraph.aws4.elastic_load_balancing;" vertex="1" parent="ZIymd6RmfC0o9f14iLVZ-96">
          <mxGeometry x="400" y="375.5" width="69" height="69" as="geometry" />
        </mxCell>
        <mxCell id="ZIymd6RmfC0o9f14iLVZ-182" style="edgeStyle=none;rounded=0;orthogonalLoop=1;jettySize=auto;html=1;exitX=0.5;exitY=1;exitDx=0;exitDy=0;exitPerimeter=0;" edge="1" parent="ZIymd6RmfC0o9f14iLVZ-96" source="ZIymd6RmfC0o9f14iLVZ-181" target="ZIymd6RmfC0o9f14iLVZ-181">
          <mxGeometry relative="1" as="geometry" />
        </mxCell>
        <mxCell id="ZIymd6RmfC0o9f14iLVZ-183" value="Web Subnet" style="points=[[0,0],[0.25,0],[0.5,0],[0.75,0],[1,0],[1,0.25],[1,0.5],[1,0.75],[1,1],[0.75,1],[0.5,1],[0.25,1],[0,1],[0,0.75],[0,0.5],[0,0.25]];outlineConnect=0;gradientColor=none;html=1;whiteSpace=wrap;fontSize=12;fontStyle=0;container=1;pointerEvents=0;collapsible=0;recursiveResize=0;shape=mxgraph.aws4.group;grIcon=mxgraph.aws4.group_security_group;grStroke=0;strokeColor=#147EBA;fillColor=#E6F2F8;verticalAlign=top;align=left;spacingLeft=30;fontColor=#147EBA;dashed=0;" vertex="1" parent="ZIymd6RmfC0o9f14iLVZ-96">
          <mxGeometry x="570" y="390" width="175" height="180" as="geometry" />
        </mxCell>
        <mxCell id="ZIymd6RmfC0o9f14iLVZ-184" value="EC2 Instances&lt;br&gt;Web Servers" style="sketch=0;points=[[0,0,0],[0.25,0,0],[0.5,0,0],[0.75,0,0],[1,0,0],[0,1,0],[0.25,1,0],[0.5,1,0],[0.75,1,0],[1,1,0],[0,0.25,0],[0,0.5,0],[0,0.75,0],[1,0.25,0],[1,0.5,0],[1,0.75,0]];outlineConnect=0;fontColor=#232F3E;gradientColor=#FF8000;gradientDirection=north;fillColor=none;strokeColor=#FF8000;dashed=0;verticalLabelPosition=bottom;verticalAlign=top;align=center;html=1;fontSize=12;fontStyle=0;aspect=fixed;shape=mxgraph.aws4.resourceIcon;resIcon=mxgraph.aws4.ec2;" vertex="1" parent="ZIymd6RmfC0o9f14iLVZ-183">
          <mxGeometry x="62.5" y="68" width="50" height="50" as="geometry" />
        </mxCell>
        <mxCell id="ZIymd6RmfC0o9f14iLVZ-189" style="edgeStyle=none;rounded=0;orthogonalLoop=1;jettySize=auto;html=1;entryX=0;entryY=0.25;entryDx=0;entryDy=0;entryPerimeter=0;exitX=1;exitY=0.5;exitDx=0;exitDy=0;exitPerimeter=0;" edge="1" parent="ZIymd6RmfC0o9f14iLVZ-96" source="ZIymd6RmfC0o9f14iLVZ-149" target="ZIymd6RmfC0o9f14iLVZ-181">
          <mxGeometry relative="1" as="geometry">
            <mxPoint x="420" y="408" as="targetPoint" />
            <Array as="points">
              <mxPoint x="320" y="272" />
              <mxPoint x="320" y="348" />
              <mxPoint x="320" y="393" />
            </Array>
          </mxGeometry>
        </mxCell>
        <mxCell id="ZIymd6RmfC0o9f14iLVZ-188" style="edgeStyle=none;rounded=0;orthogonalLoop=1;jettySize=auto;html=1;entryX=0.5;entryY=0;entryDx=0;entryDy=0;entryPerimeter=0;" edge="1" parent="ZIymd6RmfC0o9f14iLVZ-96" source="ZIymd6RmfC0o9f14iLVZ-138" target="ZIymd6RmfC0o9f14iLVZ-148">
          <mxGeometry relative="1" as="geometry">
            <Array as="points">
              <mxPoint x="645" y="153" />
            </Array>
          </mxGeometry>
        </mxCell>
        <mxCell id="ZIymd6RmfC0o9f14iLVZ-187" style="edgeStyle=none;rounded=0;orthogonalLoop=1;jettySize=auto;html=1;exitX=1;exitY=0.75;exitDx=0;exitDy=0;exitPerimeter=0;" edge="1" parent="ZIymd6RmfC0o9f14iLVZ-96" source="ZIymd6RmfC0o9f14iLVZ-181" target="ZIymd6RmfC0o9f14iLVZ-184">
          <mxGeometry relative="1" as="geometry">
            <Array as="points">
              <mxPoint x="660" y="428" />
            </Array>
          </mxGeometry>
        </mxCell>
        <mxCell id="ZIymd6RmfC0o9f14iLVZ-186" value="" style="endArrow=classic;html=1;rounded=0;exitX=0;exitY=0.75;exitDx=0;exitDy=0;exitPerimeter=0;entryX=0.614;entryY=0.26;entryDx=0;entryDy=0;entryPerimeter=0;" edge="1" parent="ZIymd6RmfC0o9f14iLVZ-96" source="ZIymd6RmfC0o9f14iLVZ-181" target="ZIymd6RmfC0o9f14iLVZ-180">
          <mxGeometry width="50" height="50" relative="1" as="geometry">
            <mxPoint x="300" y="466" as="sourcePoint" />
            <mxPoint x="350" y="416" as="targetPoint" />
            <Array as="points">
              <mxPoint x="231" y="428" />
            </Array>
          </mxGeometry>
        </mxCell>
        <mxCell id="ZIymd6RmfC0o9f14iLVZ-190" style="edgeStyle=none;rounded=0;orthogonalLoop=1;jettySize=auto;html=1;entryX=1;entryY=0.25;entryDx=0;entryDy=0;entryPerimeter=0;exitX=0;exitY=0.5;exitDx=0;exitDy=0;exitPerimeter=0;" edge="1" parent="ZIymd6RmfC0o9f14iLVZ-96" source="ZIymd6RmfC0o9f14iLVZ-148" target="ZIymd6RmfC0o9f14iLVZ-181">
          <mxGeometry relative="1" as="geometry">
            <mxPoint x="600" y="258" as="sourcePoint" />
            <Array as="points">
              <mxPoint x="530" y="273" />
              <mxPoint x="530" y="393" />
            </Array>
          </mxGeometry>
        </mxCell>
        <mxCell id="ZIymd6RmfC0o9f14iLVZ-191" style="edgeStyle=none;rounded=0;orthogonalLoop=1;jettySize=auto;html=1;entryX=1;entryY=0.25;entryDx=0;entryDy=0;entryPerimeter=0;exitX=1;exitY=0.5;exitDx=0;exitDy=0;exitPerimeter=0;" edge="1" parent="ZIymd6RmfC0o9f14iLVZ-96" source="ZIymd6RmfC0o9f14iLVZ-180" target="ZIymd6RmfC0o9f14iLVZ-164">
          <mxGeometry relative="1" as="geometry">
            <mxPoint x="240" y="488" as="sourcePoint" />
            <Array as="points">
              <mxPoint x="330" y="483" />
              <mxPoint x="330" y="689" />
            </Array>
          </mxGeometry>
        </mxCell>
        <mxCell id="ZIymd6RmfC0o9f14iLVZ-192" style="edgeStyle=none;rounded=0;orthogonalLoop=1;jettySize=auto;html=1;entryX=1;entryY=0.5;entryDx=0;entryDy=0;entryPerimeter=0;exitX=0;exitY=0.5;exitDx=0;exitDy=0;exitPerimeter=0;" edge="1" parent="ZIymd6RmfC0o9f14iLVZ-96" source="ZIymd6RmfC0o9f14iLVZ-184" target="ZIymd6RmfC0o9f14iLVZ-164">
          <mxGeometry relative="1" as="geometry">
            <Array as="points">
              <mxPoint x="550" y="483" />
              <mxPoint x="550" y="708" />
            </Array>
          </mxGeometry>
        </mxCell>
        <mxCell id="ZIymd6RmfC0o9f14iLVZ-193" style="edgeStyle=none;rounded=0;orthogonalLoop=1;jettySize=auto;html=1;exitX=1;exitY=0.75;exitDx=0;exitDy=0;exitPerimeter=0;entryX=0;entryY=0.75;entryDx=0;entryDy=0;entryPerimeter=0;" edge="1" parent="ZIymd6RmfC0o9f14iLVZ-96" source="ZIymd6RmfC0o9f14iLVZ-164" target="ZIymd6RmfC0o9f14iLVZ-163">
          <mxGeometry relative="1" as="geometry" />
        </mxCell>
        <mxCell id="ZIymd6RmfC0o9f14iLVZ-194" style="edgeStyle=none;rounded=0;orthogonalLoop=1;jettySize=auto;html=1;exitX=0;exitY=0.75;exitDx=0;exitDy=0;exitPerimeter=0;entryX=1;entryY=0.25;entryDx=0;entryDy=0;entryPerimeter=0;" edge="1" parent="ZIymd6RmfC0o9f14iLVZ-96" source="ZIymd6RmfC0o9f14iLVZ-180" target="ZIymd6RmfC0o9f14iLVZ-167">
          <mxGeometry relative="1" as="geometry">
            <Array as="points">
              <mxPoint x="130" y="495" />
              <mxPoint x="130" y="693" />
            </Array>
          </mxGeometry>
        </mxCell>
        <mxCell id="ZIymd6RmfC0o9f14iLVZ-171" value="" style="rounded=1;arcSize=10;dashed=1;strokeColor=#0000FF;fillColor=none;gradientColor=none;dashPattern=8 4;strokeWidth=1;" vertex="1" parent="ZIymd6RmfC0o9f14iLVZ-96">
          <mxGeometry x="154" y="663" width="566" height="127" as="geometry" />
        </mxCell>
        <mxCell id="ZIymd6RmfC0o9f14iLVZ-163" value="&lt;font style=&quot;font-size: 10px;&quot;&gt;&lt;b&gt;Amazon RDS&lt;br style=&quot;border-color: var(--border-color);&quot;&gt;&amp;nbsp;Database(Secondary)&lt;/b&gt;&lt;/font&gt;" style="sketch=0;points=[[0,0,0],[0.25,0,0],[0.5,0,0],[0.75,0,0],[1,0,0],[0,1,0],[0.25,1,0],[0.5,1,0],[0.75,1,0],[1,1,0],[0,0.25,0],[0,0.5,0],[0,0.75,0],[1,0.25,0],[1,0.5,0],[1,0.75,0]];outlineConnect=0;fontColor=#232F3E;gradientColor=#4D72F3;gradientDirection=north;fillColor=#3334B9;strokeColor=#ffffff;dashed=0;verticalLabelPosition=bottom;verticalAlign=top;align=center;html=1;fontSize=12;fontStyle=0;aspect=fixed;shape=mxgraph.aws4.resourceIcon;resIcon=mxgraph.aws4.rds;" vertex="1" parent="ZIymd6RmfC0o9f14iLVZ-96">
          <mxGeometry x="616.25" y="668.5" width="77.5" height="77.5" as="geometry" />
        </mxCell>
        <mxCell id="ZIymd6RmfC0o9f14iLVZ-185" value="" style="rounded=1;arcSize=10;dashed=1;strokeColor=#F59D56;fillColor=none;gradientColor=none;dashPattern=8 4;strokeWidth=2;" vertex="1" parent="ZIymd6RmfC0o9f14iLVZ-96">
          <mxGeometry x="157" y="468" width="560" height="92" as="geometry" />
        </mxCell>
        <mxCell id="ZIymd6RmfC0o9f14iLVZ-149" value="EC2 Instances&lt;br&gt;Web Servers" style="sketch=0;points=[[0,0,0],[0.25,0,0],[0.5,0,0],[0.75,0,0],[1,0,0],[0,1,0],[0.25,1,0],[0.5,1,0],[0.75,1,0],[1,1,0],[0,0.25,0],[0,0.5,0],[0,0.75,0],[1,0.25,0],[1,0.5,0],[1,0.75,0]];outlineConnect=0;fontColor=#232F3E;gradientColor=#FF8000;gradientDirection=north;fillColor=none;strokeColor=#FF8000;dashed=0;verticalLabelPosition=bottom;verticalAlign=top;align=center;html=1;fontSize=12;fontStyle=0;aspect=fixed;shape=mxgraph.aws4.resourceIcon;resIcon=mxgraph.aws4.ec2;" vertex="1" parent="ZIymd6RmfC0o9f14iLVZ-96">
          <mxGeometry x="195" y="246" width="50" height="50" as="geometry" />
        </mxCell>
        <mxCell id="ZIymd6RmfC0o9f14iLVZ-148" value="EC2 Instances&lt;br&gt;Web Servers" style="sketch=0;points=[[0,0,0],[0.25,0,0],[0.5,0,0],[0.75,0,0],[1,0,0],[0,1,0],[0.25,1,0],[0.5,1,0],[0.75,1,0],[1,1,0],[0,0.25,0],[0,0.5,0],[0,0.75,0],[1,0.25,0],[1,0.5,0],[1,0.75,0]];outlineConnect=0;fontColor=#232F3E;gradientColor=#FF8000;gradientDirection=north;fillColor=none;strokeColor=#FF8000;dashed=0;verticalLabelPosition=bottom;verticalAlign=top;align=center;html=1;fontSize=12;fontStyle=0;aspect=fixed;shape=mxgraph.aws4.resourceIcon;resIcon=mxgraph.aws4.ec2;" vertex="1" parent="ZIymd6RmfC0o9f14iLVZ-96">
          <mxGeometry x="620" y="246" width="50" height="50" as="geometry" />
        </mxCell>
        <mxCell id="ZIymd6RmfC0o9f14iLVZ-141" value="Availability Zone 2" style="fillColor=none;strokeColor=#147EBA;dashed=1;verticalAlign=top;fontStyle=0;fontColor=#147EBA;whiteSpace=wrap;html=1;" vertex="1" parent="ZIymd6RmfC0o9f14iLVZ-96">
          <mxGeometry x="540" y="-40" width="210" height="905" as="geometry" />
        </mxCell>
        <mxCell id="ZIymd6RmfC0o9f14iLVZ-205" value="Public subnet" style="points=[[0,0],[0.25,0],[0.5,0],[0.75,0],[1,0],[1,0.25],[1,0.5],[1,0.75],[1,1],[0.75,1],[0.5,1],[0.25,1],[0,1],[0,0.75],[0,0.5],[0,0.25]];outlineConnect=0;gradientColor=none;html=1;whiteSpace=wrap;fontSize=12;fontStyle=0;container=1;pointerEvents=0;collapsible=0;recursiveResize=0;shape=mxgraph.aws4.group;grIcon=mxgraph.aws4.group_security_group;grStroke=0;strokeColor=#248814;fillColor=#E9F3E6;verticalAlign=top;align=left;spacingLeft=30;fontColor=#248814;dashed=0;" vertex="1" parent="ZIymd6RmfC0o9f14iLVZ-96">
          <mxGeometry x="158" y="19" width="130" height="130" as="geometry" />
        </mxCell>
        <mxCell id="ZIymd6RmfC0o9f14iLVZ-203" value="NAT gateway" style="sketch=0;outlineConnect=0;fontColor=#232F3E;gradientColor=none;fillColor=#4D27AA;strokeColor=none;dashed=0;verticalLabelPosition=bottom;verticalAlign=top;align=center;html=1;fontSize=12;fontStyle=0;aspect=fixed;pointerEvents=1;shape=mxgraph.aws4.nat_gateway;" vertex="1" parent="ZIymd6RmfC0o9f14iLVZ-205">
          <mxGeometry x="29.71" y="32.71" width="57.29" height="57.29" as="geometry" />
        </mxCell>
        <mxCell id="ZIymd6RmfC0o9f14iLVZ-206" value="Public subnet" style="points=[[0,0],[0.25,0],[0.5,0],[0.75,0],[1,0],[1,0.25],[1,0.5],[1,0.75],[1,1],[0.75,1],[0.5,1],[0.25,1],[0,1],[0,0.75],[0,0.5],[0,0.25]];outlineConnect=0;gradientColor=none;html=1;whiteSpace=wrap;fontSize=12;fontStyle=0;container=1;pointerEvents=0;collapsible=0;recursiveResize=0;shape=mxgraph.aws4.group;grIcon=mxgraph.aws4.group_security_group;grStroke=0;strokeColor=#248814;fillColor=#E9F3E6;verticalAlign=top;align=left;spacingLeft=30;fontColor=#248814;dashed=0;" vertex="1" parent="ZIymd6RmfC0o9f14iLVZ-96">
          <mxGeometry x="570" y="19" width="170" height="130" as="geometry" />
        </mxCell>
        <mxCell id="ZIymd6RmfC0o9f14iLVZ-204" value="NAT Gateway" style="sketch=0;outlineConnect=0;fontColor=#232F3E;gradientColor=none;fillColor=#4D27AA;strokeColor=none;dashed=0;verticalLabelPosition=bottom;verticalAlign=top;align=center;html=1;fontSize=12;fontStyle=0;aspect=fixed;pointerEvents=1;shape=mxgraph.aws4.nat_gateway;" vertex="1" parent="ZIymd6RmfC0o9f14iLVZ-96">
          <mxGeometry x="616.25" y="51.71" width="38.29" height="38.29" as="geometry" />
        </mxCell>
        <mxCell id="ZIymd6RmfC0o9f14iLVZ-121" style="edgeStyle=none;rounded=0;orthogonalLoop=1;jettySize=auto;html=1;exitX=0.5;exitY=0;exitDx=0;exitDy=0;" edge="1" parent="ZIymd6RmfC0o9f14iLVZ-93" source="ZIymd6RmfC0o9f14iLVZ-96" target="ZIymd6RmfC0o9f14iLVZ-96">
          <mxGeometry relative="1" as="geometry" />
        </mxCell>
        <mxCell id="ZIymd6RmfC0o9f14iLVZ-125" style="edgeStyle=none;rounded=0;orthogonalLoop=1;jettySize=auto;html=1;entryX=1;entryY=0.25;entryDx=0;entryDy=0;entryPerimeter=0;exitX=0;exitY=0.5;exitDx=0;exitDy=0;exitPerimeter=0;" edge="1" parent="ZIymd6RmfC0o9f14iLVZ-93" source="ZIymd6RmfC0o9f14iLVZ-123" target="ZIymd6RmfC0o9f14iLVZ-124">
          <mxGeometry relative="1" as="geometry" />
        </mxCell>
        <mxCell id="ZIymd6RmfC0o9f14iLVZ-200" style="edgeStyle=none;rounded=0;orthogonalLoop=1;jettySize=auto;html=1;exitX=1;exitY=0.5;exitDx=0;exitDy=0;exitPerimeter=0;entryX=0.5;entryY=0;entryDx=0;entryDy=0;entryPerimeter=0;" edge="1" parent="ZIymd6RmfC0o9f14iLVZ-93" source="ZIymd6RmfC0o9f14iLVZ-123" target="ZIymd6RmfC0o9f14iLVZ-199">
          <mxGeometry relative="1" as="geometry">
            <Array as="points">
              <mxPoint x="590" y="58" />
            </Array>
          </mxGeometry>
        </mxCell>
        <mxCell id="ZIymd6RmfC0o9f14iLVZ-123" value="&lt;font style=&quot;font-size: 13px;&quot;&gt;&lt;b&gt;Amazon Route 53 &lt;br&gt;DNS Service&lt;/b&gt;&lt;/font&gt;" style="sketch=0;points=[[0,0,0],[0.25,0,0],[0.5,0,0],[0.75,0,0],[1,0,0],[0,1,0],[0.25,1,0],[0.5,1,0],[0.75,1,0],[1,1,0],[0,0.25,0],[0,0.5,0],[0,0.75,0],[1,0.25,0],[1,0.5,0],[1,0.75,0]];outlineConnect=0;fontColor=#232F3E;gradientColor=#945DF2;gradientDirection=north;fillColor=#5A30B5;strokeColor=#ffffff;dashed=0;verticalLabelPosition=bottom;verticalAlign=top;align=center;html=1;fontSize=12;fontStyle=0;aspect=fixed;shape=mxgraph.aws4.resourceIcon;resIcon=mxgraph.aws4.route_53;" vertex="1" parent="ZIymd6RmfC0o9f14iLVZ-93">
          <mxGeometry x="380" y="20" width="70" height="70" as="geometry" />
        </mxCell>
        <mxCell id="ZIymd6RmfC0o9f14iLVZ-136" style="edgeStyle=none;rounded=0;orthogonalLoop=1;jettySize=auto;html=1;exitX=1;exitY=0.75;exitDx=0;exitDy=0;exitPerimeter=0;entryX=0.5;entryY=0;entryDx=0;entryDy=0;entryPerimeter=0;" edge="1" parent="ZIymd6RmfC0o9f14iLVZ-93" source="ZIymd6RmfC0o9f14iLVZ-124" target="ZIymd6RmfC0o9f14iLVZ-134">
          <mxGeometry relative="1" as="geometry">
            <Array as="points">
              <mxPoint x="290" y="85" />
            </Array>
          </mxGeometry>
        </mxCell>
        <mxCell id="ZIymd6RmfC0o9f14iLVZ-124" value="&lt;font style=&quot;font-size: 13px;&quot;&gt;&lt;b&gt;AWS WAF&lt;br&gt;Web Application Firewall&lt;/b&gt;&lt;/font&gt;" style="sketch=0;points=[[0,0,0],[0.25,0,0],[0.5,0,0],[0.75,0,0],[1,0,0],[0,1,0],[0.25,1,0],[0.5,1,0],[0.75,1,0],[1,1,0],[0,0.25,0],[0,0.5,0],[0,0.75,0],[1,0.25,0],[1,0.5,0],[1,0.75,0]];outlineConnect=0;fontColor=#232F3E;gradientColor=#F54749;gradientDirection=north;fillColor=#C7131F;strokeColor=#ffffff;dashed=0;verticalLabelPosition=bottom;verticalAlign=top;align=center;html=1;fontSize=12;fontStyle=0;aspect=fixed;shape=mxgraph.aws4.resourceIcon;resIcon=mxgraph.aws4.waf;" vertex="1" parent="ZIymd6RmfC0o9f14iLVZ-93">
          <mxGeometry x="130" y="38" width="62" height="62" as="geometry" />
        </mxCell>
        <mxCell id="ZIymd6RmfC0o9f14iLVZ-126" value="&lt;b style=&quot;border-color: var(--border-color); font-size: 13px;&quot;&gt;media.request.com&lt;/b&gt;" style="text;html=1;align=center;verticalAlign=middle;resizable=0;points=[];autosize=1;strokeColor=none;fillColor=none;" vertex="1" parent="ZIymd6RmfC0o9f14iLVZ-93">
          <mxGeometry x="220" y="20" width="140" height="30" as="geometry" />
        </mxCell>
        <mxCell id="ZIymd6RmfC0o9f14iLVZ-140" style="edgeStyle=none;rounded=0;orthogonalLoop=1;jettySize=auto;html=1;entryX=0.5;entryY=0;entryDx=0;entryDy=0;entryPerimeter=0;exitX=1;exitY=0.5;exitDx=0;exitDy=0;exitPerimeter=0;" edge="1" parent="ZIymd6RmfC0o9f14iLVZ-93" source="ZIymd6RmfC0o9f14iLVZ-134" target="ZIymd6RmfC0o9f14iLVZ-138">
          <mxGeometry relative="1" as="geometry">
            <Array as="points">
              <mxPoint x="459" y="138" />
            </Array>
          </mxGeometry>
        </mxCell>
        <mxCell id="ZIymd6RmfC0o9f14iLVZ-134" value="&lt;font style=&quot;font-size: 13px;&quot;&gt;&lt;b&gt;Amazon CloudFron&lt;br&gt;CDN&lt;/b&gt;&lt;/font&gt;" style="sketch=0;points=[[0,0,0],[0.25,0,0],[0.5,0,0],[0.75,0,0],[1,0,0],[0,1,0],[0.25,1,0],[0.5,1,0],[0.75,1,0],[1,1,0],[0,0.25,0],[0,0.5,0],[0,0.75,0],[1,0.25,0],[1,0.5,0],[1,0.75,0]];outlineConnect=0;fontColor=#232F3E;gradientColor=#945DF2;gradientDirection=north;fillColor=#5A30B5;strokeColor=#ffffff;dashed=0;verticalLabelPosition=bottom;verticalAlign=top;align=center;html=1;fontSize=12;fontStyle=0;aspect=fixed;shape=mxgraph.aws4.resourceIcon;resIcon=mxgraph.aws4.cloudfront;" vertex="1" parent="ZIymd6RmfC0o9f14iLVZ-93">
          <mxGeometry x="265" y="110" width="50" height="50" as="geometry" />
        </mxCell>
        <mxCell id="ZIymd6RmfC0o9f14iLVZ-157" value="&lt;b&gt;Amazon S3 Static&lt;br&gt;&amp;nbsp;Storage and Backup&lt;/b&gt;" style="sketch=0;points=[[0,0,0],[0.25,0,0],[0.5,0,0],[0.75,0,0],[1,0,0],[0,1,0],[0.25,1,0],[0.5,1,0],[0.75,1,0],[1,1,0],[0,0.25,0],[0,0.5,0],[0,0.75,0],[1,0.25,0],[1,0.5,0],[1,0.75,0]];outlineConnect=0;fontColor=#232F3E;gradientColor=#60A337;gradientDirection=north;fillColor=#277116;strokeColor=#ffffff;dashed=0;verticalLabelPosition=bottom;verticalAlign=top;align=center;html=1;fontSize=12;fontStyle=0;aspect=fixed;shape=mxgraph.aws4.resourceIcon;resIcon=mxgraph.aws4.s3;" vertex="1" parent="ZIymd6RmfC0o9f14iLVZ-93">
          <mxGeometry x="90" y="170" width="40" height="40" as="geometry" />
        </mxCell>
        <mxCell id="ZIymd6RmfC0o9f14iLVZ-197" style="edgeStyle=none;rounded=0;orthogonalLoop=1;jettySize=auto;html=1;exitX=0;exitY=0.5;exitDx=0;exitDy=0;exitPerimeter=0;entryX=0.5;entryY=1;entryDx=0;entryDy=0;entryPerimeter=0;" edge="1" parent="ZIymd6RmfC0o9f14iLVZ-93" source="ZIymd6RmfC0o9f14iLVZ-149" target="ZIymd6RmfC0o9f14iLVZ-157">
          <mxGeometry relative="1" as="geometry">
            <Array as="points">
              <mxPoint x="110" y="554" />
            </Array>
          </mxGeometry>
        </mxCell>
        <mxCell id="ZIymd6RmfC0o9f14iLVZ-201" style="edgeStyle=none;rounded=0;orthogonalLoop=1;jettySize=auto;html=1;exitX=0;exitY=0.5;exitDx=0;exitDy=0;exitPerimeter=0;entryX=0.75;entryY=0;entryDx=0;entryDy=0;entryPerimeter=0;" edge="1" parent="ZIymd6RmfC0o9f14iLVZ-93" source="ZIymd6RmfC0o9f14iLVZ-199" target="ZIymd6RmfC0o9f14iLVZ-138">
          <mxGeometry relative="1" as="geometry">
            <Array as="points">
              <mxPoint x="480" y="138" />
            </Array>
          </mxGeometry>
        </mxCell>
        <mxCell id="ZIymd6RmfC0o9f14iLVZ-199" value="&lt;b&gt;AWS WAF&lt;br&gt;Web Application Firewall&lt;/b&gt;" style="sketch=0;points=[[0,0,0],[0.25,0,0],[0.5,0,0],[0.75,0,0],[1,0,0],[0,1,0],[0.25,1,0],[0.5,1,0],[0.75,1,0],[1,1,0],[0,0.25,0],[0,0.5,0],[0,0.75,0],[1,0.25,0],[1,0.5,0],[1,0.75,0]];outlineConnect=0;fontColor=#232F3E;gradientColor=#F54749;gradientDirection=north;fillColor=#C7131F;strokeColor=#ffffff;dashed=0;verticalLabelPosition=bottom;verticalAlign=top;align=center;html=1;fontSize=12;fontStyle=0;aspect=fixed;shape=mxgraph.aws4.resourceIcon;resIcon=mxgraph.aws4.waf;" vertex="1" parent="ZIymd6RmfC0o9f14iLVZ-93">
          <mxGeometry x="560" y="110" width="60" height="60" as="geometry" />
        </mxCell>
        <mxCell id="ZIymd6RmfC0o9f14iLVZ-202" value="&lt;b style=&quot;border-color: var(--border-color); font-size: 13px;&quot;&gt;www.request.com&lt;/b&gt;" style="text;html=1;align=center;verticalAlign=middle;resizable=0;points=[];autosize=1;strokeColor=none;fillColor=none;" vertex="1" parent="ZIymd6RmfC0o9f14iLVZ-93">
          <mxGeometry x="450" y="20" width="130" height="30" as="geometry" />
        </mxCell>
        <mxCell id="ZIymd6RmfC0o9f14iLVZ-107" value="" style="edgeStyle=none;rounded=0;orthogonalLoop=1;jettySize=auto;html=1;exitX=1;exitY=0.5;exitDx=0;exitDy=0;entryX=0.151;entryY=1.017;entryDx=0;entryDy=0;entryPerimeter=0;" edge="1" parent="1" source="ZIymd6RmfC0o9f14iLVZ-22" target="ZIymd6RmfC0o9f14iLVZ-17">
          <mxGeometry relative="1" as="geometry">
            <mxPoint x="218" y="496.16" as="sourcePoint" />
            <mxPoint x="320" y="327.16" as="targetPoint" />
            <Array as="points" />
          </mxGeometry>
        </mxCell>
        <mxCell id="ZIymd6RmfC0o9f14iLVZ-110" value="" style="endArrow=classic;startArrow=classic;html=1;rounded=0;exitX=0;exitY=0.25;exitDx=0;exitDy=0;entryX=0.5;entryY=0;entryDx=0;entryDy=0;" edge="1" parent="1" source="ZIymd6RmfC0o9f14iLVZ-8" target="ZIymd6RmfC0o9f14iLVZ-108">
          <mxGeometry width="50" height="50" relative="1" as="geometry">
            <mxPoint x="621" y="412.16" as="sourcePoint" />
            <mxPoint x="342" y="316.16" as="targetPoint" />
          </mxGeometry>
        </mxCell>
        <mxCell id="ZIymd6RmfC0o9f14iLVZ-108" value="Apache Server" style="dashed=0;outlineConnect=0;html=1;align=center;labelPosition=center;verticalLabelPosition=bottom;verticalAlign=top;shape=mxgraph.webicons.apache;gradientColor=#DFDEDE;fillColor=none;" vertex="1" parent="1">
          <mxGeometry x="330" y="327.73999999999995" width="102.4" height="59.42" as="geometry" />
        </mxCell>
        <mxCell id="ZIymd6RmfC0o9f14iLVZ-113" value="" style="dashed=0;outlineConnect=0;html=1;align=center;labelPosition=center;verticalLabelPosition=bottom;verticalAlign=top;shape=mxgraph.weblogos.apache" vertex="1" parent="1">
          <mxGeometry x="590.28" y="410.78000000000003" width="42.6" height="36.38" as="geometry" />
        </mxCell>
        <mxCell id="ZIymd6RmfC0o9f14iLVZ-118" value="" style="endArrow=classic;startArrow=classic;html=1;rounded=0;strokeWidth=2;strokeColor=#2E5FFF;" edge="1" parent="1" source="ZIymd6RmfC0o9f14iLVZ-42" target="ZIymd6RmfC0o9f14iLVZ-117">
          <mxGeometry width="50" height="50" relative="1" as="geometry">
            <mxPoint x="711" y="377.16" as="sourcePoint" />
            <mxPoint x="711" y="217.16" as="targetPoint" />
          </mxGeometry>
        </mxCell>
        <mxCell id="ZIymd6RmfC0o9f14iLVZ-117" value="" style="shape=mxgraph.cisco.controllers_and_modules.firewall_service_module_(fwsm);html=1;pointerEvents=1;dashed=0;fillColor=#036897;strokeColor=#ffffff;strokeWidth=2;verticalLabelPosition=bottom;verticalAlign=top;align=center;outlineConnect=0;" vertex="1" parent="1">
          <mxGeometry x="684.8" y="264.16" width="53" height="83" as="geometry" />
        </mxCell>
        <mxCell id="ZIymd6RmfC0o9f14iLVZ-207" value="" style="points=[[0.35,0,0],[0.98,0.51,0],[1,0.71,0],[0.67,1,0],[0,0.795,0],[0,0.65,0]];verticalLabelPosition=bottom;sketch=0;html=1;verticalAlign=top;aspect=fixed;align=center;pointerEvents=1;shape=mxgraph.cisco19.user;fillColor=#005073;strokeColor=none;" vertex="1" parent="1">
          <mxGeometry x="1330" y="20" width="50" height="50" as="geometry" />
        </mxCell>
        <mxCell id="ZIymd6RmfC0o9f14iLVZ-208" value="&lt;font style=&quot;font-size: 14px;&quot;&gt;Om Premises &lt;br&gt;DataCenter&lt;br&gt;BackUp Server&lt;br&gt;&lt;/font&gt;" style="verticalLabelPosition=bottom;sketch=0;aspect=fixed;html=1;verticalAlign=top;strokeColor=none;align=center;outlineConnect=0;shape=mxgraph.citrix.datacenter;" vertex="1" parent="1">
          <mxGeometry x="650.78" y="557.16" width="114.44" height="121.18" as="geometry" />
        </mxCell>
        <mxCell id="ZIymd6RmfC0o9f14iLVZ-209" value="" style="shape=image;html=1;verticalAlign=top;verticalLabelPosition=bottom;labelBackgroundColor=#ffffff;imageAspect=0;aspect=fixed;image=https://cdn1.iconfinder.com/data/icons/Vista-Inspirate_1.0/128x128/apps/debian.png" vertex="1" parent="1">
          <mxGeometry x="610.78" y="627.16" width="40" height="40" as="geometry" />
        </mxCell>
        <mxCell id="ZIymd6RmfC0o9f14iLVZ-210" value="Apache Server" style="image;aspect=fixed;perimeter=ellipsePerimeter;html=1;align=center;shadow=0;dashed=0;spacingTop=3;image=img/lib/active_directory/database_server.svg;" vertex="1" parent="1">
          <mxGeometry x="620.28" y="557.16" width="41" height="50" as="geometry" />
        </mxCell>
        <mxCell id="ZIymd6RmfC0o9f14iLVZ-211" value="" style="endArrow=classic;startArrow=classic;html=1;rounded=0;entryX=1;entryY=0.5;entryDx=0;entryDy=0;entryPerimeter=0;" edge="1" parent="1" source="ZIymd6RmfC0o9f14iLVZ-208">
          <mxGeometry width="50" height="50" relative="1" as="geometry">
            <mxPoint x="650.78" y="654.34" as="sourcePoint" />
            <mxPoint x="670.78" y="663.4900000000001" as="targetPoint" />
          </mxGeometry>
        </mxCell>
        <mxCell id="ZIymd6RmfC0o9f14iLVZ-212" value="" style="dashed=0;outlineConnect=0;html=1;align=center;labelPosition=center;verticalLabelPosition=bottom;verticalAlign=top;shape=mxgraph.weblogos.apache" vertex="1" parent="1">
          <mxGeometry x="590.28" y="570.7800000000001" width="42.6" height="36.38" as="geometry" />
        </mxCell>
        <mxCell id="ZIymd6RmfC0o9f14iLVZ-213" value="&lt;font style=&quot;font-size: 14px;&quot;&gt;Om Premises &lt;br&gt;DataCenter&lt;br&gt;BackUp Server&lt;br&gt;&lt;/font&gt;" style="verticalLabelPosition=bottom;sketch=0;aspect=fixed;html=1;verticalAlign=top;strokeColor=none;align=center;outlineConnect=0;shape=mxgraph.citrix.datacenter;" vertex="1" parent="1">
          <mxGeometry x="660.28" y="749.16" width="114.44" height="121.18" as="geometry" />
        </mxCell>
        <mxCell id="ZIymd6RmfC0o9f14iLVZ-214" value="" style="shape=image;html=1;verticalAlign=top;verticalLabelPosition=bottom;labelBackgroundColor=#ffffff;imageAspect=0;aspect=fixed;image=https://cdn1.iconfinder.com/data/icons/Vista-Inspirate_1.0/128x128/apps/debian.png" vertex="1" parent="1">
          <mxGeometry x="620.28" y="819.16" width="40" height="40" as="geometry" />
        </mxCell>
        <mxCell id="ZIymd6RmfC0o9f14iLVZ-215" value="Apache Server" style="image;aspect=fixed;perimeter=ellipsePerimeter;html=1;align=center;shadow=0;dashed=0;spacingTop=3;image=img/lib/active_directory/database_server.svg;" vertex="1" parent="1">
          <mxGeometry x="629.78" y="749.16" width="41" height="50" as="geometry" />
        </mxCell>
        <mxCell id="ZIymd6RmfC0o9f14iLVZ-216" value="" style="endArrow=classic;startArrow=classic;html=1;rounded=0;entryX=1;entryY=0.5;entryDx=0;entryDy=0;entryPerimeter=0;" edge="1" parent="1" source="ZIymd6RmfC0o9f14iLVZ-213">
          <mxGeometry width="50" height="50" relative="1" as="geometry">
            <mxPoint x="660.28" y="846.34" as="sourcePoint" />
            <mxPoint x="680.28" y="855.4900000000001" as="targetPoint" />
          </mxGeometry>
        </mxCell>
      </root>
    </mxGraphModel>
  </diagram>
</mxfile>
